{"glyphs":{":":{"x_min":0,"x_max":265,"ha":265,"o":"m 72 0 l 72 121 l 193 121 l 193 0 z m 72 410 l 72 530 l 193 530 l 193 410 z"},"$":{"x_min":0,"x_max":608,"ha":608,"o":"m 296 -60 l 296 0 q 193 0 93 42 l 93 163 l 147 163 l 148 154 q 149 131 149 121 q 149 81 185 56 q 220 32 277 32 l 296 32 l 296 329 q 196 387 156 436 q 117 484 117 552 q 117 697 296 725 l 296 783 l 326 783 l 326 725 q 411 721 500 688 l 500 575 l 446 575 l 445 584 q 443 608 443 617 q 443 651 414 671 q 384 692 335 692 l 326 692 l 326 409 q 375 377 399 362 q 462 322 486 288 q 509 254 509 202 q 509 124 460 69 q 411 15 326 0 l 326 -60 z m 326 38 q 425 66 425 176 q 425 261 326 311 z m 296 429 l 296 688 q 253 682 227 649 q 201 617 201 568 q 201 492 296 429 z"},"?":{"x_min":0,"x_max":480,"ha":480,"o":"m 151 0 l 151 96 l 247 96 l 247 0 z m 151 193 l 151 202 q 151 301 220 370 l 240 390 q 332 480 332 578 q 332 645 299 678 q 267 711 202 711 q 147 711 112 681 q 96 667 92 585 l 92 575 l 43 575 l 43 708 q 135 741 221 741 q 317 741 376 697 q 434 653 434 581 q 434 503 338 429 q 311 407 300 398 l 282 381 q 247 349 247 260 l 247 193 z"},"<":{"x_min":0,"x_max":608,"ha":608,"o":"m 569 554 l 569 496 l 157 289 l 569 83 l 569 24 l 39 289 z"},"'":{"x_min":0,"x_max":241,"ha":241,"o":"m 105 506 l 60 771 l 181 771 l 135 506 z"},"=":{"x_min":0,"x_max":608,"ha":608,"o":"m 39 178 l 39 232 l 569 232 l 569 178 z m 39 346 l 39 400 l 569 400 l 569 346 z"},"a":{"x_min":0,"x_max":543,"ha":543,"o":"m 376 73 q 290 -12 206 -12 q 139 -12 94 31 q 49 73 49 138 q 49 213 107 260 q 174 313 334 313 l 354 313 l 354 379 q 354 505 259 505 q 214 505 180 478 q 160 461 155 410 l 154 400 l 89 400 l 89 498 q 190 542 277 542 q 450 542 450 383 l 450 147 q 450 83 461 58 q 472 32 500 32 q 509 32 525 36 l 528 0 q 494 -12 466 -12 q 395 -12 376 73 z m 354 83 l 354 283 l 332 283 q 247 283 199 248 q 151 213 151 151 q 151 105 181 75 q 210 45 255 45 q 297 45 354 83 z"},"L":{"x_min":0,"x_max":557,"ha":557,"o":"m 539 0 l 21 0 l 21 30 l 30 31 q 89 35 100 48 q 111 61 111 126 l 111 596 q 111 663 100 675 q 89 688 30 692 l 21 693 l 21 723 l 304 723 l 304 693 l 295 692 q 235 688 225 675 q 214 663 214 596 l 214 126 q 214 62 224 52 q 233 42 298 42 l 372 42 q 459 42 471 52 q 484 62 487 135 l 488 145 l 539 145 z"},"3":{"x_min":0,"x_max":608,"ha":608,"o":"m 90 5 l 90 132 l 139 132 l 139 122 l 141 83 q 143 59 158 47 q 203 12 268 12 q 332 12 371 62 q 410 113 410 195 q 410 278 358 324 q 307 371 216 371 l 157 371 l 157 400 l 189 400 q 296 400 345 439 q 394 478 394 564 q 394 638 361 674 q 329 711 264 711 q 208 711 166 687 q 154 680 151 671 q 149 663 145 610 l 144 603 l 96 603 l 96 713 q 174 741 273 741 q 374 741 431 697 q 489 652 489 575 q 489 510 451 464 q 414 418 337 391 q 431 367 471 322 q 511 278 511 198 q 511 99 446 40 q 381 -18 270 -18 q 218 -18 173 -12 q 128 -6 90 5 z"},";":{"x_min":0,"x_max":265,"ha":265,"o":"m 121 0 l 72 0 l 72 121 l 193 121 l 193 16 q 193 -46 186 -70 q 179 -93 154 -119 q 120 -154 72 -157 l 72 -126 q 121 -122 121 -32 z m 72 410 l 72 530 l 193 530 l 193 410 z"},"J":{"x_min":0,"x_max":422,"ha":422,"o":"m 6 -135 l 6 -2 l 63 -2 l 63 -14 l 65 -50 q 65 -108 126 -108 q 164 -108 188 -77 q 211 -46 211 3 l 211 72 l 211 596 q 208 669 200 679 q 192 688 130 692 l 121 693 l 121 723 l 404 723 l 404 693 l 395 692 q 335 688 324 675 q 313 663 313 596 l 313 132 q 313 -19 263 -82 q 212 -145 89 -145 q 50 -145 6 -135 z"},"V":{"x_min":0,"x_max":699,"ha":699,"o":"m 342 -9 l 94 594 q 62 667 53 679 q 43 690 10 692 l 0 693 l 0 723 l 262 723 l 262 693 l 251 693 q 176 693 176 674 q 176 666 206 594 l 393 139 l 568 594 q 574 609 578 619 q 594 659 594 671 q 594 693 523 693 l 512 693 l 512 723 l 699 723 l 699 693 l 688 692 q 654 690 647 681 q 639 671 608 594 l 375 -9 z"},"\"":{"x_min":0,"x_max":386,"ha":386,"o":"m 93 530 l 60 771 l 156 771 l 124 530 z m 262 530 l 229 771 l 325 771 l 292 530 z"},"7":{"x_min":0,"x_max":608,"ha":608,"o":"m 137 0 q 151 76 178 139 q 212 219 250 277 q 288 335 435 535 l 508 632 l 101 632 l 101 723 l 565 723 l 565 660 q 407 448 333 293 q 260 139 251 0 z"},"S":{"x_min":0,"x_max":542,"ha":542,"o":"m 58 15 l 58 154 l 109 154 l 110 145 q 111 121 111 108 q 111 70 143 50 q 195 18 257 18 q 322 18 359 55 q 396 92 396 157 q 396 211 372 244 q 349 276 281 314 l 229 343 q 63 437 63 548 q 63 631 123 686 q 183 741 273 741 q 312 741 358 733 q 404 726 456 710 l 456 582 l 402 582 l 401 590 q 399 616 399 628 q 399 669 370 689 q 341 708 278 708 q 226 708 194 674 q 161 639 161 583 q 161 535 184 504 q 206 473 265 439 l 316 410 q 422 350 459 305 q 497 260 497 192 q 497 102 429 42 q 362 -18 262 -18 q 203 -18 152 -10 q 101 -1 58 15 z"},"}":{"x_min":0,"x_max":343,"ha":343,"o":"m 240 313 q 132 359 132 483 q 132 523 141 571 l 147 604 q 157 648 157 660 q 157 741 62 741 l 48 741 l 48 771 l 62 771 q 137 771 186 728 q 235 685 235 619 q 235 588 226 537 l 217 490 q 205 429 205 411 q 205 328 294 328 l 319 328 l 319 298 l 294 298 q 205 298 205 216 q 205 197 217 137 l 226 89 q 235 39 235 8 q 235 -59 186 -102 q 137 -145 62 -145 l 48 -145 l 48 -114 l 62 -114 q 157 -114 157 -32 q 157 -21 147 22 l 141 56 q 132 103 132 144 q 132 267 240 313 z"},"Z":{"x_min":0,"x_max":632,"ha":632,"o":"m 56 0 l 56 39 l 443 684 l 224 684 q 159 684 144 677 q 129 671 129 646 q 129 626 127 590 l 126 578 l 72 578 l 72 723 l 559 723 l 559 690 l 172 45 l 391 45 q 482 45 493 53 q 504 61 507 129 l 507 139 l 562 139 l 562 0 z"},"x":{"x_min":0,"x_max":557,"ha":557,"o":"m 2 0 l 2 30 l 10 31 q 30 32 46 47 q 63 62 118 125 l 229 257 l 117 402 q 61 473 47 485 q 33 498 8 500 l -1 500 l -1 530 l 239 530 l 239 500 l 229 500 q 177 500 176 485 q 176 476 231 402 l 307 300 l 380 400 q 427 464 427 485 q 427 500 383 500 l 372 500 l 372 530 l 541 530 l 541 500 l 531 500 q 503 498 474 461 q 448 429 427 402 l 326 276 l 441 126 q 512 34 551 31 l 559 30 l 559 0 l 317 0 l 317 30 l 326 30 q 384 30 384 41 q 384 51 329 125 l 247 232 l 164 125 q 108 52 108 45 q 108 30 163 30 l 174 30 l 174 0 z"},")":{"x_min":0,"x_max":316,"ha":316,"o":"m 42 741 l 42 771 q 146 707 207 583 q 268 458 268 312 q 268 170 206 44 q 144 -82 42 -145 l 42 -114 q 117 -29 144 62 q 171 152 171 313 q 171 475 144 565 q 117 656 42 741 z"},"&":{"x_min":0,"x_max":690,"ha":690,"o":"m 508 0 l 462 50 q 356 -18 261 -18 q 159 -18 89 49 q 18 117 18 214 q 18 375 201 434 q 145 520 145 583 q 145 651 193 696 q 241 741 314 741 q 392 741 438 701 q 485 662 485 596 q 485 475 322 417 q 334 396 340 386 q 401 286 508 140 q 552 204 552 294 q 552 333 547 342 q 542 351 521 351 q 516 351 478 354 l 469 354 l 469 384 l 698 384 l 698 354 l 688 354 q 630 351 625 347 q 620 343 620 307 q 620 229 530 115 q 540 105 555 89 q 571 73 575 69 q 601 40 619 36 q 623 36 685 31 l 692 30 l 692 0 z m 440 76 q 309 248 215 407 q 114 349 114 241 q 114 154 170 95 q 226 37 310 37 q 378 37 440 76 z m 307 441 q 395 501 395 611 q 395 711 319 711 q 241 711 241 612 q 241 558 289 474 q 294 463 307 441 z"},"_":{"x_min":0,"x_max":500,"ha":500,"o":"m 48 -63 l 48 0 l 452 0 l 452 -63 z"},"v":{"x_min":0,"x_max":545,"ha":545,"o":"m 251 -6 l 79 400 q 52 464 40 481 q 28 498 8 500 l 0 500 l 0 530 l 230 530 l 230 500 l 221 500 q 157 500 156 479 q 156 472 186 399 l 306 117 l 429 399 q 458 466 458 479 q 458 500 399 500 l 388 500 l 388 530 l 545 530 l 545 500 l 535 500 q 517 498 507 487 q 499 478 464 399 l 281 -6 z"},"O":{"x_min":0,"x_max":777,"ha":777,"o":"m 389 -18 q 232 -18 142 83 q 51 185 51 361 q 51 538 142 639 q 232 741 389 741 q 545 741 636 639 q 726 538 726 361 q 726 185 636 83 q 545 -18 389 -18 z m 389 15 q 496 15 557 107 q 618 199 618 361 q 618 524 557 616 q 496 708 389 708 q 281 708 220 616 q 160 524 160 361 q 160 199 220 107 q 281 15 389 15 z"},"(":{"x_min":0,"x_max":316,"ha":316,"o":"m 274 -114 l 274 -145 q 170 -80 109 44 q 48 168 48 315 q 48 457 111 583 q 173 708 274 771 l 274 741 q 200 657 172 566 q 145 475 145 313 q 145 152 172 61 q 200 -30 274 -114 z"},"C":{"x_min":0,"x_max":695,"ha":695,"o":"m 638 39 q 540 -18 410 -18 q 243 -18 147 84 q 51 186 51 363 q 51 542 144 641 q 236 741 402 741 q 487 741 625 705 l 625 566 l 565 566 l 565 576 q 564 591 564 605 q 564 653 520 680 q 475 708 398 708 q 289 708 223 614 q 158 521 158 364 q 158 207 234 118 q 311 30 448 30 q 537 30 638 85 z"},"W":{"x_min":0,"x_max":925,"ha":925,"o":"m 246 -9 l 92 593 q 70 676 63 684 q 57 692 10 692 l 0 693 l 0 723 l 259 723 l 259 693 l 250 693 q 202 693 189 688 q 177 683 177 666 q 177 649 191 593 l 298 173 l 464 714 l 499 714 l 665 158 l 790 593 q 811 667 811 676 q 811 693 735 693 l 726 693 l 726 723 l 925 723 l 925 693 l 916 692 q 864 689 858 683 q 853 676 827 593 l 650 -9 l 618 -9 l 447 547 l 280 -9 z"},"A":{"x_min":0,"x_max":744,"ha":744,"o":"m 183 223 l 141 126 q 117 70 117 51 q 117 30 180 30 l 188 30 l 188 0 l 0 0 l 0 30 l 10 31 q 52 33 60 41 q 68 50 101 126 l 355 732 l 390 732 l 643 123 q 673 58 685 45 q 697 33 733 31 l 744 30 l 744 0 l 476 0 l 476 30 l 485 30 q 553 30 553 50 q 553 79 533 126 l 492 223 z m 199 262 l 475 262 l 337 591 z"},"f":{"x_min":0,"x_max":404,"ha":404,"o":"m 121 488 l 42 488 l 42 530 l 121 530 l 121 556 q 121 676 159 730 q 198 783 287 783 q 354 783 416 747 l 416 632 l 355 632 l 355 642 q 354 671 354 687 q 354 752 283 752 q 244 752 230 723 q 217 695 217 614 l 217 530 l 350 530 l 350 491 l 217 491 l 217 126 q 217 61 229 47 q 241 34 304 31 l 319 30 l 319 0 l 30 0 l 30 30 l 40 31 q 99 35 110 48 q 121 61 121 126 z"},"Q":{"x_min":0,"x_max":778,"ha":778,"o":"m 503 0 q 619 -67 863 -85 l 742 -146 q 619 -109 459 -12 q 423 -18 389 -18 q 232 -18 142 84 q 51 186 51 361 q 51 538 142 639 q 232 741 389 741 q 545 741 636 640 q 727 539 727 367 q 727 222 671 130 q 615 39 503 0 z m 618 361 q 618 525 558 616 q 497 708 389 708 q 281 708 221 616 q 160 525 160 361 q 160 198 220 106 q 281 15 389 15 q 497 15 558 107 q 618 198 618 361 z"},"w":{"x_min":0,"x_max":795,"ha":795,"o":"m 205 -6 l 75 404 q 55 465 44 482 q 33 498 10 500 l 0 500 l 0 530 l 238 530 l 238 500 l 228 500 q 153 500 153 478 q 153 456 170 404 l 252 139 l 406 527 l 436 527 l 592 129 l 688 404 q 708 462 708 477 q 708 500 632 500 l 622 500 l 622 530 l 795 530 l 795 500 l 784 500 q 750 498 735 448 q 731 434 721 404 l 577 -6 l 550 -6 l 389 397 l 235 -6 z"},"-":{"x_min":0,"x_max":325,"ha":325,"o":"m 48 262 l 48 334 l 277 334 l 277 262 z"},"E":{"x_min":0,"x_max":566,"ha":566,"o":"m 542 0 l 21 0 l 21 30 l 30 31 q 89 35 100 48 q 111 61 111 126 l 111 596 q 111 663 100 675 q 89 688 30 692 l 21 693 l 21 723 l 515 723 l 515 596 l 461 596 l 460 605 q 456 673 450 678 q 444 684 372 684 l 214 684 l 214 395 l 346 395 q 390 395 400 400 q 410 404 412 446 l 413 455 l 452 455 l 452 295 l 413 295 l 412 304 q 410 341 400 348 q 390 355 346 355 l 214 355 l 214 126 q 214 70 227 56 q 241 42 297 42 l 374 42 q 460 42 472 51 q 484 59 487 124 l 488 132 l 542 132 z"},"s":{"x_min":0,"x_max":504,"ha":504,"o":"m 68 27 l 68 162 l 122 162 l 123 153 q 129 80 133 71 q 136 61 158 46 q 202 18 256 18 q 300 18 328 45 q 356 71 356 113 q 356 150 338 172 q 319 194 271 212 l 222 231 q 142 262 106 301 q 71 339 71 394 q 71 458 122 500 q 174 542 253 542 q 331 542 414 512 l 414 386 l 360 386 l 360 395 q 357 442 352 461 q 347 479 336 488 q 305 513 260 513 q 217 513 189 485 q 161 458 161 417 q 161 382 184 362 q 207 341 275 313 l 320 294 q 394 264 423 232 q 452 199 452 148 q 452 77 395 32 q 339 -12 249 -12 q 153 -12 68 27 z"},">":{"x_min":0,"x_max":608,"ha":608,"o":"m 39 24 l 39 82 l 452 289 l 39 496 l 39 554 l 569 289 z"},"l":{"x_min":0,"x_max":313,"ha":313,"o":"m 205 771 l 205 126 q 205 60 215 47 q 226 35 286 31 l 295 30 l 295 0 l 18 0 l 18 30 l 27 31 q 86 35 97 48 q 108 61 108 126 l 108 645 q 108 710 97 723 q 86 736 27 740 l 18 741 l 18 771 z"},"8":{"x_min":0,"x_max":608,"ha":608,"o":"m 209 389 q 98 466 98 557 q 98 639 157 690 q 217 741 312 741 q 404 741 458 698 q 513 655 513 583 q 513 472 371 398 q 543 325 543 187 q 543 97 475 39 q 406 -18 298 -18 q 192 -18 127 35 q 62 89 62 176 q 62 321 209 389 z m 344 415 q 429 478 429 581 q 429 639 395 675 q 360 711 303 711 q 252 711 217 676 q 182 640 182 589 q 182 539 214 504 q 246 470 344 415 z m 231 368 q 158 301 158 188 q 158 107 197 60 q 236 12 303 12 q 365 12 406 54 q 447 96 447 160 q 447 212 416 248 q 385 284 299 331 z"},"\\":{"x_min":0,"x_max":512,"ha":512,"o":"m 450 -145 l 2 771 l 62 771 l 509 -145 z"},"e":{"x_min":0,"x_max":530,"ha":530,"o":"m 479 24 q 387 -12 311 -12 q 194 -12 121 66 q 48 145 48 271 q 48 390 114 466 q 179 542 282 542 q 376 542 427 478 q 479 414 479 295 l 479 286 l 155 286 q 155 163 198 100 q 241 37 326 37 q 416 37 479 73 z m 157 316 l 376 316 l 377 338 q 377 430 353 471 q 329 512 275 512 q 221 512 189 459 q 157 406 157 316 z"},"b":{"x_min":0,"x_max":611,"ha":611,"o":"m 78 -6 l 78 645 q 78 710 67 723 q 56 736 -3 740 l -12 741 l -12 771 l 174 771 l 174 431 q 210 486 257 514 q 304 542 361 542 q 451 542 504 471 q 557 400 557 281 q 557 148 496 68 q 435 -12 334 -12 q 288 -12 248 6 q 208 24 174 60 l 168 60 l 156 -6 z m 174 98 q 213 70 250 56 q 286 42 321 42 q 388 42 421 95 q 455 148 455 254 q 455 367 422 424 q 390 480 325 480 q 282 480 244 459 q 207 438 174 397 z"},"%":{"x_min":0,"x_max":675,"ha":675,"o":"m 17 -18 l 598 741 l 658 741 l 78 -18 z m 165 361 q 97 361 54 412 q 11 462 11 542 q 11 622 54 672 q 97 723 165 723 q 232 723 275 672 q 318 622 318 542 q 318 462 275 412 q 232 361 165 361 z m 165 392 q 205 392 225 429 q 246 467 246 542 q 246 618 225 655 q 205 693 165 693 q 124 693 104 655 q 83 618 83 542 q 83 467 104 429 q 124 392 165 392 z m 511 0 q 443 0 400 51 q 357 101 357 181 q 357 260 400 311 q 443 361 511 361 q 579 361 622 311 q 665 260 665 181 q 665 101 622 51 q 579 0 511 0 z m 511 30 q 552 30 572 68 q 592 105 592 181 q 592 256 572 294 q 552 332 511 332 q 470 332 450 294 q 429 256 429 181 q 429 105 450 68 q 470 30 511 30 z"},"m":{"x_min":0,"x_max":946,"ha":946,"o":"m 205 431 q 247 486 292 514 q 338 542 388 542 q 446 542 480 514 q 514 486 524 431 q 570 486 618 514 q 665 542 713 542 q 855 542 855 386 l 855 126 q 855 60 866 48 q 876 35 937 31 l 946 30 l 946 0 l 668 0 l 668 30 l 678 31 q 738 35 748 48 q 759 60 759 126 l 759 368 q 759 431 742 455 q 726 479 684 479 q 649 479 611 459 q 572 438 530 397 l 530 126 q 530 61 541 48 q 552 35 611 31 l 621 30 l 621 0 l 343 0 l 343 30 l 353 31 q 413 35 423 47 q 434 60 434 126 l 434 368 q 434 430 417 455 q 401 479 361 479 q 323 479 284 459 q 245 438 205 397 l 205 126 q 205 60 215 47 q 226 35 286 31 l 295 30 l 295 0 l 18 0 l 18 30 l 27 31 q 86 35 97 48 q 108 61 108 126 l 108 404 q 108 470 97 482 q 86 495 27 500 l 18 500 l 18 530 l 205 530 z"},"#":{"x_min":0,"x_max":608,"ha":608,"o":"m 94 0 l 149 223 l -3 223 l 6 271 l 161 271 l 207 452 l 42 452 l 52 500 l 219 500 l 274 723 l 324 723 l 269 500 l 410 500 l 465 723 l 515 723 l 459 500 l 612 500 l 603 452 l 447 452 l 402 271 l 566 271 l 557 223 l 390 223 l 334 0 l 284 0 l 340 223 l 199 223 l 144 0 z m 211 271 l 352 271 l 397 452 l 256 452 z"},",":{"x_min":0,"x_max":265,"ha":265,"o":"m 121 0 l 72 0 l 72 121 l 193 121 l 193 16 q 193 -46 186 -70 q 179 -93 154 -119 q 120 -154 72 -157 l 72 -126 q 121 -122 121 -32 z"},"n":{"x_min":0,"x_max":632,"ha":632,"o":"m 205 431 q 241 486 289 514 q 337 542 396 542 q 464 542 503 497 q 542 452 542 374 l 542 126 q 545 54 553 44 q 561 35 624 31 l 632 30 l 632 0 l 355 0 l 355 30 l 364 31 q 427 35 435 44 q 442 54 446 126 l 446 358 q 446 427 428 453 q 410 480 364 480 q 332 480 292 460 q 252 439 205 398 l 205 126 q 205 60 215 47 q 226 35 286 31 l 295 30 l 295 0 l 18 0 l 18 30 l 27 31 q 86 35 97 48 q 108 61 108 126 l 108 404 q 108 470 97 482 q 86 495 27 500 l 18 500 l 18 530 l 205 530 z"},"h":{"x_min":0,"x_max":632,"ha":632,"o":"m 205 431 q 241 486 289 514 q 337 542 396 542 q 464 542 503 497 q 542 452 542 374 l 542 126 q 545 54 553 44 q 561 35 624 31 l 632 30 l 632 0 l 355 0 l 355 30 l 364 31 q 427 35 435 44 q 442 54 446 126 l 446 358 q 446 427 428 453 q 410 480 364 480 q 332 480 292 460 q 252 439 205 398 l 205 126 q 205 60 215 47 q 226 35 286 31 l 295 30 l 295 0 l 18 0 l 18 30 l 27 31 q 86 35 97 48 q 108 61 108 126 l 108 645 q 108 710 97 723 q 86 736 27 740 l 18 741 l 18 771 l 205 771 z"},"z":{"x_min":0,"x_max":596,"ha":596,"o":"m 66 0 l 66 30 l 402 500 l 229 500 q 157 500 145 495 q 133 490 133 459 q 133 439 132 424 l 131 414 l 80 414 l 80 530 l 514 530 l 514 500 l 182 36 l 376 36 q 453 36 464 45 q 476 53 476 110 l 476 122 l 527 122 l 527 0 z"},"B":{"x_min":0,"x_max":609,"ha":609,"o":"m 359 375 q 449 360 500 309 q 552 257 552 182 q 552 90 491 45 q 430 0 304 0 l 21 0 l 21 30 l 30 31 q 89 35 100 48 q 111 61 111 126 l 111 596 q 111 663 100 675 q 89 688 30 692 l 21 693 l 21 723 l 318 723 q 417 723 470 682 q 522 641 522 562 q 522 499 481 452 q 440 405 359 375 z m 212 358 l 212 126 q 212 52 225 45 q 249 33 296 33 q 363 33 404 73 q 446 113 446 178 q 446 358 212 358 z m 212 392 l 242 392 q 330 392 373 432 q 417 472 417 552 q 417 628 377 659 q 336 690 237 690 l 212 690 z"},"K":{"x_min":0,"x_max":708,"ha":708,"o":"m 214 365 l 214 126 q 214 61 224 48 q 233 34 283 31 l 292 30 l 292 0 l 21 0 l 21 30 l 30 31 q 89 35 100 48 q 111 61 111 126 l 111 596 q 111 663 100 675 q 89 688 30 692 l 21 693 l 21 723 l 304 723 l 304 693 l 295 692 q 235 688 225 675 q 214 663 214 596 l 214 368 l 433 596 q 504 676 504 684 q 504 693 434 693 l 425 693 l 425 723 l 647 723 l 647 693 l 639 692 q 582 689 569 681 q 556 673 480 596 l 295 408 l 548 126 q 613 57 631 45 q 649 34 698 31 l 708 30 l 708 0 l 413 0 l 413 30 l 421 30 q 481 30 482 42 q 483 58 421 128 z"},"R":{"x_min":0,"x_max":679,"ha":679,"o":"m 213 318 l 213 126 q 213 61 223 48 q 233 34 282 31 l 292 30 l 292 0 l 21 0 l 21 30 l 30 31 q 89 35 100 48 q 111 61 111 126 l 111 596 q 111 663 100 675 q 89 688 30 692 l 21 693 l 21 723 l 195 723 l 283 725 l 322 726 q 546 726 546 543 q 546 392 396 340 l 538 127 q 585 60 599 47 q 613 34 636 33 q 643 32 669 31 l 679 30 l 679 0 l 495 0 l 297 318 z m 214 351 l 250 351 q 441 351 441 532 q 441 618 406 654 q 370 690 283 690 l 214 690 z"},"T":{"x_min":0,"x_max":663,"ha":663,"o":"m 280 684 l 165 684 q 124 684 94 679 q 74 676 74 643 q 74 618 73 600 l 72 590 l 21 590 l 21 723 l 642 723 l 642 590 l 590 590 l 590 600 q 588 618 588 643 q 588 676 569 679 q 538 684 498 684 l 382 684 l 382 126 q 382 62 394 48 q 406 34 464 31 l 485 30 l 485 0 l 178 0 l 178 30 l 199 31 q 257 34 268 48 q 280 62 280 126 z"},"P":{"x_min":0,"x_max":573,"ha":573,"o":"m 213 301 l 213 126 q 213 62 225 48 q 236 34 294 31 l 315 30 l 315 0 l 21 0 l 21 30 l 30 31 q 89 35 100 48 q 111 61 111 126 l 111 596 q 111 663 100 675 q 89 688 30 692 l 21 693 l 21 723 l 236 723 l 307 725 l 341 726 q 552 726 552 535 q 552 418 475 360 q 398 301 244 301 z m 213 334 l 250 334 q 347 334 395 384 q 443 434 443 533 q 443 618 406 654 q 370 690 283 690 l 213 690 z"},"|":{"x_min":0,"x_max":241,"ha":241,"o":"m 87 -145 l 87 771 l 154 771 l 154 -145 z"},"t":{"x_min":0,"x_max":392,"ha":392,"o":"m 352 3 q 315 -12 282 -12 q 198 -12 159 30 q 120 73 120 166 l 120 491 l 42 491 l 42 530 l 120 530 l 120 626 l 217 650 l 217 530 l 364 530 l 364 491 l 217 491 l 217 153 q 217 84 235 56 q 253 27 296 27 q 319 27 352 42 z"},"M":{"x_min":0,"x_max":860,"ha":860,"o":"m 21 693 l 21 723 l 228 723 l 445 197 l 657 723 l 839 723 l 839 693 l 830 692 q 771 688 760 675 q 749 663 749 596 l 749 126 q 749 61 760 48 q 771 35 830 31 l 839 30 l 839 0 l 563 0 l 563 30 l 572 31 q 631 35 642 48 q 653 61 653 126 l 653 623 l 425 58 l 390 58 l 165 631 l 165 126 q 165 61 176 48 q 187 35 246 31 l 255 30 l 255 0 l 21 0 l 21 30 l 30 31 q 89 35 100 48 q 111 61 111 126 l 111 596 q 111 663 101 675 q 90 688 30 692 z"},"g":{"x_min":0,"x_max":571,"ha":571,"o":"m 138 21 q 83 46 83 90 q 83 115 106 139 q 129 163 176 186 q 122 210 95 252 q 68 295 68 355 q 68 440 122 491 q 177 542 268 542 q 324 542 369 521 l 555 536 l 530 478 l 403 498 q 465 438 465 356 q 465 275 410 222 q 355 168 271 168 q 238 168 202 179 q 185 166 176 151 q 167 136 167 119 q 167 84 229 84 l 313 84 q 435 84 480 59 q 526 33 526 -36 q 526 -112 457 -158 q 388 -205 273 -205 q 165 -205 98 -174 q 32 -143 32 -91 q 32 -58 58 -30 q 85 -2 138 21 z m 164 359 q 164 279 190 239 q 216 199 267 199 q 318 199 344 239 q 369 279 369 359 q 369 512 268 512 q 216 512 190 474 q 164 436 164 359 z m 164 12 q 146 -5 136 -27 q 127 -49 127 -75 q 127 -125 165 -151 q 202 -176 277 -176 q 348 -176 390 -145 q 433 -113 433 -60 q 433 -24 407 -6 q 382 12 331 12 z"},"j":{"x_min":0,"x_max":346,"ha":346,"o":"m 250 530 l 250 6 q 250 -99 206 -152 q 161 -205 72 -205 q 25 -205 -36 -186 l -36 -66 l 18 -66 l 19 -75 q 19 -131 32 -153 q 45 -175 81 -175 q 125 -175 140 -149 q 154 -124 154 -40 l 154 404 q 154 470 143 483 q 132 495 72 500 l 63 500 l 63 530 z m 154 626 l 154 723 l 250 723 l 250 626 z"},"i":{"x_min":0,"x_max":307,"ha":307,"o":"m 205 530 l 205 126 q 205 60 215 47 q 226 35 286 31 l 295 30 l 295 0 l 18 0 l 18 30 l 27 31 q 86 35 97 48 q 108 61 108 126 l 108 404 q 108 470 97 482 q 86 495 27 500 l 18 500 l 18 530 z m 108 626 l 108 723 l 205 723 l 205 626 z"},"y":{"x_min":0,"x_max":551,"ha":551,"o":"m 81 -193 l 255 0 l 88 402 q 62 466 49 482 q 36 498 10 500 l 0 500 l 0 530 l 242 530 l 242 500 l 232 500 q 166 500 166 482 q 166 474 193 402 l 312 117 l 438 403 q 466 466 466 479 q 466 500 407 500 l 394 500 l 394 530 l 551 530 l 551 500 l 542 500 q 512 498 490 444 q 486 435 472 402 l 203 -193 z"},"@":{"x_min":0,"x_max":874,"ha":874,"o":"m 538 21 q 452 -18 370 -18 q 228 -18 136 67 q 44 151 44 282 q 44 445 164 583 q 301 741 505 741 q 644 741 736 653 q 829 565 829 435 q 829 318 756 231 q 683 144 584 144 q 542 144 521 161 q 500 178 500 211 q 500 221 516 290 l 520 310 l 510 310 q 461 228 414 186 q 367 145 321 145 q 276 145 254 173 q 231 201 231 258 q 231 374 312 473 q 393 572 488 572 q 511 572 568 557 q 571 556 582 553 l 628 553 l 571 273 q 566 246 566 226 q 566 204 578 192 q 591 181 615 181 q 683 181 741 262 q 798 343 798 440 q 798 555 712 633 q 626 711 500 711 q 337 711 206 581 q 74 450 74 288 q 74 167 157 90 q 240 12 369 12 q 445 12 527 49 z m 524 400 l 545 503 q 525 514 503 519 q 481 524 457 524 q 391 524 346 455 q 302 385 302 282 q 302 243 314 224 q 325 205 348 205 q 384 205 428 253 q 472 302 524 400 z"},".":{"x_min":0,"x_max":265,"ha":265,"o":"m 72 0 l 72 121 l 193 121 l 193 0 z"},"p":{"x_min":0,"x_max":642,"ha":642,"o":"m 205 60 l 205 -66 q 205 -133 215 -145 q 226 -158 286 -162 l 295 -163 l 295 -193 l 18 -193 l 18 -163 l 27 -162 q 86 -158 97 -145 q 108 -132 108 -66 l 108 404 q 108 470 97 482 q 86 495 27 500 l 18 500 l 18 530 l 205 530 l 205 431 q 241 486 287 514 q 334 542 391 542 q 481 542 534 471 q 587 400 587 281 q 587 148 526 68 q 465 -12 364 -12 q 318 -12 278 6 q 238 24 205 60 z m 205 98 q 243 70 280 56 q 316 42 352 42 q 418 42 452 95 q 485 148 485 254 q 485 367 453 424 q 420 480 355 480 q 312 480 274 459 q 237 438 205 397 z"},"X":{"x_min":0,"x_max":657,"ha":657,"o":"m 276 356 l 132 597 q 83 678 76 684 q 69 690 22 692 l 12 693 l 12 723 l 292 723 l 292 693 l 283 693 q 212 693 212 680 q 212 668 253 597 l 358 419 l 481 597 q 528 665 528 680 q 528 693 473 693 l 464 693 l 464 723 l 645 723 l 645 693 l 633 692 q 601 690 590 681 q 580 671 526 597 l 385 397 l 542 127 q 590 49 598 41 q 606 33 647 31 l 657 30 l 657 0 l 386 0 l 386 30 l 394 30 q 465 30 466 47 q 467 56 425 127 l 305 330 l 165 127 q 119 60 119 47 q 119 30 188 30 l 199 30 l 199 0 l 0 0 l 0 30 l 6 31 q 52 35 60 41 q 68 48 123 127 z"},"*":{"x_min":0,"x_max":470,"ha":470,"o":"m 267 562 l 404 626 l 427 558 l 278 528 q 278 533 278 536 q 278 550 267 562 z m 272 512 l 376 401 l 317 358 l 244 491 q 263 495 272 512 z m 227 491 l 153 358 l 94 401 l 197 512 q 208 495 227 491 z m 192 528 l 43 558 l 66 626 l 204 562 q 192 549 192 536 q 192 533 192 528 z m 217 572 l 199 723 l 271 723 l 253 572 q 243 577 235 577 q 227 577 217 572 z"},"Y":{"x_min":0,"x_max":678,"ha":678,"o":"m 283 320 l 118 593 q 66 679 60 685 q 54 690 10 692 l 0 693 l 0 723 l 280 723 l 280 693 l 271 693 q 201 693 200 677 q 199 663 240 593 l 375 365 l 517 593 q 559 661 559 676 q 559 693 491 693 l 482 693 l 482 723 l 678 723 l 678 693 l 668 692 q 621 689 614 682 q 606 676 554 593 l 386 320 l 386 126 q 386 60 396 48 q 407 35 467 31 l 476 30 l 476 0 l 193 0 l 193 30 l 202 31 q 262 35 273 48 q 283 60 283 126 z"},"c":{"x_min":0,"x_max":509,"ha":509,"o":"m 458 18 q 382 -12 309 -12 q 193 -12 121 65 q 48 143 48 268 q 48 392 118 467 q 188 542 303 542 q 362 542 458 518 l 458 392 l 398 392 l 397 400 q 397 510 301 510 q 231 510 190 446 q 149 383 149 274 q 149 164 198 100 q 247 36 331 36 q 403 36 458 60 z"},"!":{"x_min":0,"x_max":265,"ha":265,"o":"m 84 0 l 84 96 l 181 96 l 181 0 z m 118 193 l 84 578 l 84 723 l 181 723 l 181 578 l 148 193 z"},"/":{"x_min":0,"x_max":512,"ha":512,"o":"m 2 -145 l 452 771 l 510 771 l 62 -145 z"},"[":{"x_min":0,"x_max":316,"ha":316,"o":"m 84 -145 l 84 771 l 277 771 l 277 741 l 169 741 l 169 -114 l 277 -114 l 277 -145 z"},"6":{"x_min":0,"x_max":608,"ha":608,"o":"m 163 370 q 197 417 240 440 q 284 464 336 464 q 431 464 491 401 q 551 337 551 237 q 551 129 483 55 q 415 -18 315 -18 q 193 -18 126 78 q 60 173 60 350 q 60 537 136 639 q 212 741 352 741 q 442 741 510 709 l 510 593 l 462 593 l 461 604 q 458 647 456 658 q 453 668 443 676 q 400 711 342 711 q 257 711 210 622 q 163 532 163 370 z m 166 270 q 166 155 210 84 q 255 13 327 13 q 387 13 421 69 q 455 125 455 224 q 455 323 420 377 q 386 430 322 430 q 251 430 208 386 q 166 342 166 270 z"},"r":{"x_min":0,"x_max":440,"ha":440,"o":"m 205 386 l 205 126 q 205 61 216 47 q 228 34 286 31 l 307 30 l 307 0 l 18 0 l 18 30 l 27 31 q 86 35 97 48 q 108 61 108 126 l 108 404 q 108 470 97 482 q 86 495 27 500 l 18 500 l 18 530 l 205 530 l 205 431 q 271 542 377 542 q 392 542 410 537 l 410 392 l 355 392 l 355 400 q 350 446 345 454 q 341 463 323 463 q 251 463 205 386 z"},"2":{"x_min":0,"x_max":608,"ha":608,"o":"m 78 0 l 78 48 q 120 169 208 252 l 260 300 q 350 384 380 434 q 410 483 410 547 q 410 621 373 666 q 337 710 277 710 q 210 710 165 674 q 147 661 143 577 l 143 565 l 94 565 l 94 697 q 200 741 288 741 q 386 741 449 686 q 512 631 512 546 q 512 433 370 335 l 312 294 q 170 198 157 84 l 509 84 l 509 0 z"},"{":{"x_min":0,"x_max":343,"ha":343,"o":"m 104 313 q 211 267 211 144 q 211 103 202 56 l 196 22 q 187 -21 187 -33 q 187 -114 282 -114 l 295 -114 l 295 -145 l 282 -145 q 206 -145 157 -102 q 108 -59 108 8 q 108 39 118 89 l 127 137 q 138 197 138 215 q 138 298 50 298 l 24 298 l 24 328 l 50 328 q 138 328 138 411 q 138 429 127 490 l 118 537 q 108 588 108 619 q 108 685 157 728 q 206 771 282 771 l 295 771 l 295 741 l 282 741 q 187 741 187 659 q 187 648 196 604 l 202 571 q 211 524 211 483 q 211 359 104 313 z"},"9":{"x_min":0,"x_max":608,"ha":608,"o":"m 445 353 q 412 306 368 282 q 325 259 272 259 q 177 259 117 322 q 57 386 57 485 q 57 594 125 667 q 193 741 293 741 q 416 741 482 645 q 548 549 548 373 q 548 187 472 84 q 396 -18 257 -18 q 167 -18 98 14 l 98 129 l 146 129 l 146 119 q 149 75 152 65 q 155 54 165 46 q 208 12 266 12 q 351 12 398 102 q 445 191 445 353 z m 443 454 q 443 567 398 639 q 353 710 281 710 q 221 710 187 654 q 153 599 153 499 q 153 399 188 346 q 222 293 286 293 q 357 293 400 337 q 443 381 443 454 z"}," ":{"x_min":0,"x_max":304,"ha":304,"o":""},"I":{"x_min":0,"x_max":325,"ha":325,"o":"m 304 30 l 304 0 l 21 0 l 21 30 l 30 31 q 89 35 100 48 q 111 61 111 126 l 111 596 q 111 663 100 675 q 89 688 30 692 l 21 693 l 21 723 l 304 723 l 304 693 l 295 692 q 235 688 225 675 q 214 663 214 596 l 214 126 q 214 61 225 48 q 235 35 295 31 z"},"H":{"x_min":0,"x_max":771,"ha":771,"o":"m 214 354 l 214 126 q 214 61 225 48 q 235 35 295 31 l 304 30 l 304 0 l 21 0 l 21 30 l 30 31 q 89 35 100 48 q 111 61 111 126 l 111 596 q 111 663 100 675 q 89 688 30 692 l 21 693 l 21 723 l 304 723 l 304 693 l 295 692 q 235 688 225 675 q 214 663 214 596 l 214 396 l 558 396 l 558 596 q 558 663 547 675 q 536 688 476 692 l 467 693 l 467 723 l 750 723 l 750 693 l 741 692 q 682 688 671 675 q 660 663 660 596 l 660 126 q 660 61 671 48 q 682 35 741 31 l 750 30 l 750 0 l 467 0 l 467 30 l 476 31 q 536 35 547 47 q 558 60 558 126 l 558 354 z"},"4":{"x_min":0,"x_max":608,"ha":608,"o":"m 362 205 l 30 205 l 30 253 l 392 735 l 446 735 l 446 277 l 542 277 l 542 205 l 446 205 l 446 126 q 446 60 457 48 q 467 35 527 31 l 536 30 l 536 0 l 259 0 l 259 30 l 268 31 q 341 35 351 46 q 362 56 362 126 z m 84 277 l 362 277 l 362 646 z"},"~":{"x_min":0,"x_max":608,"ha":608,"o":"m 39 214 q 43 292 77 336 q 110 380 165 380 q 202 380 292 333 l 353 302 q 427 264 462 264 q 517 264 539 358 l 569 358 q 553 199 441 199 q 395 199 317 239 l 257 270 q 172 314 145 314 q 89 314 69 214 z"},"D":{"x_min":0,"x_max":768,"ha":768,"o":"m 21 0 l 21 30 l 30 31 q 89 35 100 48 q 111 61 111 126 l 111 596 q 111 663 100 675 q 89 688 30 692 l 21 693 l 21 723 l 252 723 l 328 725 l 363 725 q 533 725 624 635 q 714 545 714 377 q 714 203 621 101 q 528 0 367 0 z m 214 690 l 214 126 q 214 61 227 51 q 253 33 330 33 q 468 33 537 116 q 606 199 606 364 q 606 537 532 613 q 458 690 291 690 z"},"^":{"x_min":0,"x_max":608,"ha":608,"o":"m 39 193 l 304 723 l 569 193 l 507 193 l 304 598 l 101 193 z"},"0":{"x_min":0,"x_max":608,"ha":608,"o":"m 304 -18 q 189 -18 120 85 q 51 188 51 359 q 51 534 120 637 q 188 741 304 741 q 420 741 489 637 q 557 534 557 359 q 557 188 488 85 q 419 -18 304 -18 z m 304 12 q 376 12 417 99 q 455 177 455 361 q 455 547 417 624 q 376 711 302 711 q 233 711 191 624 q 154 547 154 361 q 154 177 191 99 q 232 12 304 12 z"},"F":{"x_min":0,"x_max":548,"ha":548,"o":"m 214 351 l 214 126 q 214 69 224 51 q 235 33 269 33 q 271 33 307 31 l 316 30 l 316 0 l 21 0 l 21 30 l 30 31 q 89 35 100 48 q 111 61 111 126 l 111 596 q 111 663 100 675 q 89 688 30 692 l 21 693 l 21 723 l 509 723 l 509 596 l 455 596 l 454 605 q 450 673 444 678 q 438 684 366 684 l 214 684 l 214 390 l 346 390 q 390 390 400 395 q 410 399 412 441 l 413 450 l 452 450 l 452 290 l 413 290 l 412 299 q 410 336 400 344 q 390 351 346 351 z"},"`":{"x_min":0,"x_max":603,"ha":603,"o":"m 179 771 l 291 771 l 396 626 l 351 626 z"},"k":{"x_min":0,"x_max":600,"ha":600,"o":"m 205 261 l 205 126 q 205 61 215 48 q 225 34 274 31 l 283 30 l 283 0 l 18 0 l 18 30 l 27 31 q 86 35 97 48 q 108 61 108 126 l 108 645 q 108 710 97 723 q 86 736 27 740 l 18 741 l 18 771 l 205 771 l 205 285 l 228 285 l 351 403 q 430 483 430 489 q 430 499 403 499 q 376 500 366 500 l 355 500 l 355 530 l 562 530 l 562 500 l 553 500 q 501 496 487 487 q 472 478 395 402 l 302 311 l 461 124 q 522 55 537 44 q 553 33 591 31 l 600 30 l 600 0 l 451 0 l 228 261 z"},"u":{"x_min":0,"x_max":632,"ha":632,"o":"m 428 0 l 428 100 q 391 44 344 16 q 296 -12 237 -12 q 168 -12 129 33 q 90 78 90 157 l 90 404 q 90 470 79 482 q 68 495 9 500 l 0 500 l 0 530 l 187 530 l 187 172 q 187 111 208 80 q 230 50 273 50 q 313 50 352 70 q 391 91 428 132 l 428 404 q 424 477 417 486 q 409 495 346 500 l 337 500 l 337 530 l 524 530 l 524 126 q 527 54 535 44 q 543 35 605 31 l 615 30 l 615 0 z"},"]":{"x_min":0,"x_max":316,"ha":316,"o":"m 232 771 l 232 -145 l 39 -145 l 39 -114 l 147 -114 l 147 741 l 39 741 l 39 771 z"},"U":{"x_min":0,"x_max":719,"ha":719,"o":"m 8 693 l 8 723 l 292 723 l 292 693 l 284 692 q 224 688 213 676 q 202 663 202 596 l 202 287 q 202 175 208 141 q 214 106 237 76 q 285 14 379 14 q 467 14 521 68 q 550 98 559 135 q 568 171 568 266 l 568 596 q 568 663 557 675 q 546 688 487 692 l 478 693 l 478 723 l 709 723 l 709 693 l 700 692 q 640 688 630 676 q 619 663 619 596 l 619 293 q 619 193 608 146 q 597 99 563 59 q 500 -18 367 -18 q 98 -18 98 271 l 98 596 q 98 663 87 675 q 76 688 17 692 z"},"o":{"x_min":0,"x_max":603,"ha":603,"o":"m 301 -12 q 184 -12 116 62 q 48 137 48 265 q 48 394 116 468 q 184 542 301 542 q 419 542 487 468 q 554 394 554 265 q 554 137 486 62 q 418 -12 301 -12 z m 301 18 q 366 18 409 88 q 452 158 452 265 q 452 371 409 442 q 366 512 301 512 q 237 512 194 442 q 151 371 151 265 q 151 158 194 88 q 236 18 301 18 z"},"N":{"x_min":0,"x_max":751,"ha":751,"o":"m 605 -10 l 157 596 l 157 126 q 157 60 168 48 q 179 35 239 31 l 248 30 l 248 0 l 21 0 l 21 30 l 30 31 q 90 35 101 48 q 112 60 112 126 l 112 596 q 112 663 101 676 q 90 688 30 692 l 21 693 l 21 723 l 184 723 l 596 162 l 596 596 q 596 663 585 675 q 574 688 514 692 l 505 693 l 505 723 l 730 723 l 730 693 l 721 692 q 662 688 651 675 q 640 663 640 596 l 640 -10 z"},"+":{"x_min":0,"x_max":608,"ha":608,"o":"m 277 24 l 277 262 l 39 262 l 39 316 l 277 316 l 277 554 l 331 554 l 331 316 l 569 316 l 569 262 l 331 262 l 331 24 z"},"G":{"x_min":0,"x_max":732,"ha":732,"o":"m 637 18 q 498 -18 402 -18 q 242 -18 146 85 q 51 188 51 363 q 51 543 144 642 q 237 741 405 741 q 465 741 523 731 q 581 722 636 704 l 636 572 l 582 572 l 581 582 q 580 595 580 610 q 580 656 535 682 q 490 708 410 708 q 290 708 225 617 q 160 526 160 358 q 160 201 233 112 q 305 23 434 23 q 473 23 535 39 l 535 181 q 535 248 524 260 q 514 273 454 277 l 445 278 l 445 308 l 728 308 l 728 278 l 719 277 q 659 273 648 260 q 637 248 637 181 z"},"q":{"x_min":0,"x_max":618,"ha":618,"o":"m 437 100 q 401 44 355 16 q 308 -12 250 -12 q 161 -12 107 59 q 54 130 54 250 q 54 382 115 462 q 176 542 277 542 q 324 542 364 524 q 403 506 437 470 l 437 530 l 533 530 l 533 -66 q 533 -133 544 -145 q 554 -158 614 -162 l 624 -163 l 624 -193 l 346 -193 l 346 -163 l 355 -162 q 416 -158 426 -145 q 437 -133 437 -66 z m 437 432 q 399 460 362 474 q 326 488 290 488 q 223 488 190 435 q 156 382 156 276 q 156 163 189 107 q 221 50 286 50 q 331 50 368 71 q 406 92 437 133 z"},"d":{"x_min":0,"x_max":642,"ha":642,"o":"m 437 0 l 437 100 q 401 44 355 16 q 308 -12 250 -12 q 161 -12 107 59 q 54 130 54 250 q 54 382 115 462 q 176 542 277 542 q 324 542 364 524 q 403 506 437 470 l 437 645 q 437 711 426 724 q 416 736 355 740 l 346 741 l 346 771 l 533 771 l 533 126 q 533 60 544 47 q 554 35 614 31 l 624 30 l 624 0 z m 437 432 q 399 460 362 474 q 326 488 290 488 q 223 488 190 435 q 156 382 156 276 q 156 163 189 107 q 221 50 286 50 q 330 50 368 71 q 405 92 437 133 z"},"1":{"x_min":0,"x_max":608,"ha":608,"o":"m 353 729 l 353 126 q 353 43 371 39 q 402 31 434 31 l 491 30 l 491 0 l 118 0 l 118 30 l 175 31 q 207 31 238 39 q 256 43 256 126 l 256 586 q 256 633 251 652 q 246 670 233 670 q 218 670 166 661 l 118 652 l 118 682 z"},"5":{"x_min":0,"x_max":608,"ha":608,"o":"m 114 -1 l 114 121 l 163 121 l 163 109 q 163 52 183 32 q 202 12 258 12 q 326 12 365 65 q 405 117 405 208 q 405 315 343 358 q 281 400 126 400 l 126 723 l 491 723 l 491 639 l 156 639 l 156 437 l 201 437 q 354 437 430 379 q 506 321 506 205 q 506 100 436 41 q 365 -18 241 -18 q 180 -18 114 -1 z"}}}
